<svg xmlns="http://www.w3.org/2000/svg" viewBox="-3 -2.5 42.5 46" role="img" aria-label="Unité type, vue en plan" class="block h-auto w-full"><defs><pattern id="slab" width="2" height="2" patternUnits="userSpaceOnUse"><circle cx="1" cy="1" r=".09" fill="#56666a" fill-opacity=".45"></circle></pattern></defs><rect x="0" y="0" width="36" height="35" fill="url(#slab)"></rect><g fill="#0f1d1e"><rect x="-0.5" y="-0.5" width="37" height="0.5"></rect><rect x="-0.5" y="-0.5" width="0.5" height="36.2"></rect><rect x="36" y="-0.5" width="0.5" height="36.2"></rect><rect x="-0.5" y="35" width="4.5" height="0.7"></rect><rect x="7" y="35" width="2.5" height="0.7"></rect><rect x="16.5" y="35" width="5.5" height="0.7"></rect><rect x="32" y="35" width="4.5" height="0.7"></rect><rect x="0" y="8" width="4" height="0.3"></rect><rect x="6.5" y="8" width="1.3" height="0.3"></rect><rect x="7.5" y="0" width="0.3" height="8.3"></rect></g><g stroke="#0f1d1e" stroke-width="0.1" fill="none"><rect x="9.5" y="35" width="7" height="0.7"></rect><line x1="9.5" y1="35.25" x2="16.5" y2="35.25"></line><line x1="9.5" y1="35.45" x2="16.5" y2="35.45"></line></g><line x1="4" y1="35" x2="4" y2="32" stroke="#0f1d1e" stroke-width="0.18"></line><path d="M7 35 A3 3 0 0 0 4 32" fill="none" stroke="#56666a" stroke-width="0.1"></path><rect x="22" y="35.05" width="10" height="0.4" fill="#d4f0c9" stroke="#0f1d1e" stroke-width="0.1"></rect><g stroke="#557a7c" stroke-width="0.12" stroke-dasharray=".7 .45" fill="none"><path d="M22.25 35V23.5H31.75V35"></path></g><g stroke="#0f1d1e" stroke-width="0.1" fill="#fff"><rect x="0.6" y="0.4" width="2.4" height="0.85" rx="0.15"></rect><ellipse cx="1.8" cy="2.6" rx="0.85" ry="1.25"></ellipse><rect x="4.4" y="0.4" width="2.4" height="1.6" rx="0.3"></rect><ellipse cx="5.6" cy="1.2" rx="0.75" ry="0.5"></ellipse></g><line x1="6.5" y1="8" x2="6.5" y2="5.5" stroke="#0f1d1e" stroke-width="0.16"></line><path d="M4 8 A2.5 2.5 0 0 1 6.5 5.5" fill="none" stroke="#56666a" stroke-width="0.1"></path><circle cx="9.7" cy="1.85" r="1.2" fill="#fff" stroke="#0f1d1e" stroke-width="0.1"></circle><circle cx="9.7" cy="1.85" r="0.45" fill="none" stroke="#0f1d1e" stroke-width="0.08"></circle><rect x="0.05" y="24" width="0.55" height="3.4" fill="#557a7c" stroke="#0f1d1e" stroke-width="0.08"></rect><text x="20" y="15.5" text-anchor="middle" font-size="1.35" letter-spacing="0.12" fill="#56666a" class="mono uppercase">Aire ouverte</text><g stroke="#56666a" stroke-width="0.08"><line x1="22" y1="36.2" x2="22" y2="40"></line><line x1="32" y1="36.2" x2="32" y2="40"></line><line x1="22" y1="39" x2="32" y2="39"></line><line x1="21.6" y1="39.4" x2="22.4" y2="38.6"></line><line x1="31.6" y1="39.4" x2="32.4" y2="38.6"></line></g><text x="27" y="41.9" text-anchor="middle" font-size="1.3" fill="#56666a" class="mono">10 pi</text><g><circle cx="27" cy="29.3" r="1.6" fill="#1d3a3c"></circle><text x="27" y="29.35" text-anchor="middle" dominant-baseline="central" font-size="1.85" font-weight="700" fill="#d4f0c9" class="mono">1</text></g><g><circle cx="5.6" cy="29.6" r="1.6" fill="#1d3a3c"></circle><text x="5.6" y="29.650000000000002" text-anchor="middle" dominant-baseline="central" font-size="1.85" font-weight="700" fill="#d4f0c9" class="mono">2</text></g><g><circle cx="2.9" cy="25.7" r="1.6" fill="#1d3a3c"></circle><text x="2.9" y="25.75" text-anchor="middle" dominant-baseline="central" font-size="1.85" font-weight="700" fill="#d4f0c9" class="mono">3</text></g><g><circle cx="12.6" cy="1.9" r="1.6" fill="#1d3a3c"></circle><text x="12.6" y="1.95" text-anchor="middle" dominant-baseline="central" font-size="1.85" font-weight="700" fill="#d4f0c9" class="mono">4</text></g><g><circle cx="13" cy="31.4" r="1.6" fill="#1d3a3c"></circle><text x="13" y="31.45" text-anchor="middle" dominant-baseline="central" font-size="1.85" font-weight="700" fill="#d4f0c9" class="mono">5</text></g></svg>